<svg width="64" height="64" viewBox="0 0 32 32" fill="none" xmlns="http://www.w3.org/2000/svg">
  <!-- Top Mortarboard Cap (Dark Navy Blue) -->
  <path d="M16 2.5 L30 11 L16 19.5 L2 11 Z" fill="#1e1b4b" />
  <path d="M9.5 13.5 C11.5 12 14.5 11.2 16 11.2 C17.5 11.2 20.5 12 22.5 13.5" stroke="#ffffff" stroke-width="1.8" stroke-linecap="round" />
  <!-- Ring "O" (Purple) -->
  <path fill-rule="evenodd" clip-rule="evenodd" d="M16 9C9.925 9 5 13.925 5 20C5 26.075 9.925 31 16 31C22.075 31 27 26.075 27 20C27 13.925 22.075 9 16 9ZM16 14.5C12.962 14.5 10.5 16.962 10.5 20C10.5 23.038 12.962 25.5 16 25.5C19.038 25.5 21.5 23.038 21.5 20C21.5 16.962 19.038 14.5 16 14.5Z" fill="#5842f4" />
</svg>
